<?xml version="1.0" encoding="UTF-8" standalone="no"?>
<!DOCTYPE svg PUBLIC "-//W3C//DTD SVG 1.1//EN" "http://www.w3.org/Graphics/SVG/1.1/DTD/svg11.dtd">
<svg version="1.1" xmlns="http://www.w3.org/2000/svg" xmlns:xlink="http://www.w3.org/1999/xlink" preserveAspectRatio="xMidYMid meet" viewBox="17.365709096013468 11 191.58713641195197 220" width="187.59" height="216"><defs><path d="M18.4 69.07C18.53 71.07 21.33 95.33 24.67 123.07C28 150.8 30.67 174.27 30.67 175.33C30.67 176.93 109.33 228 111.87 228C114.53 228 192 175.87 192 174.13C192 172.27 204.93 75.07 205.87 69.2C206.53 65.87 204.4 64.4 160 38.8C134.53 24.13 112.8 12 111.73 12C110.8 12.13 89.33 24.13 64 38.8C20.4 64 18 65.6 18.4 69.07ZM117.2 71.73C116.94 71.94 115.65 72.96 113.33 74.8L113.33 44.8L113.33 14.8C125.49 21.92 132.25 25.88 133.6 26.67C144.8 33.2 154 38.93 154.27 39.6C154.4 40.53 131.2 60.67 117.2 71.73ZM109.33 74.4C105.6 73.2 62.8 43.33 63.73 42.53C65.2 41.07 108.53 16.13 109.73 16C110.27 16 110.67 29.2 110.67 45.47C110.67 64 110.13 74.67 109.33 74.4ZM201.33 66.53C201.33 67.47 176.67 88 175.6 88C175.33 88 176.8 84.4 178.93 80C179.19 79.47 180.48 76.8 182.8 72C180.24 68.24 178.82 66.15 178.53 65.73C170.53 53.87 171.73 54.27 161.2 60.27C156.13 63.2 152 65.87 152 66.27C152 66.8 156.27 72.67 161.33 79.6C170.13 91.2 171.6 94.8 167.6 94.67C166.67 94.53 161.87 88.53 156.93 81.2C156.33 80.31 153.31 75.87 147.87 67.87C143.31 70.51 140.77 71.97 140.27 72.27C136.13 74.53 128.27 79.07 123.07 82.13C122.42 82.52 119.17 84.43 113.33 87.87C113.33 85.15 113.33 83.64 113.33 83.33C113.33 79.2 114.93 77.47 135.07 60.13C146.93 49.87 157.07 41.47 157.73 41.47C158.27 41.33 168.27 46.8 180 53.47C191.73 60.13 201.33 66.13 201.33 66.53ZM110.67 88.27C108.11 86.67 106.68 85.78 106.4 85.6C93.2 77.6 75.6 68 75.2 68.4C74.8 68.67 70.4 74.8 65.47 81.87C60.4 89.07 55.87 94.93 55.47 95.07C54.67 95.47 22.67 67.73 22.67 66.67C22.67 66.27 30.93 61.07 41.07 55.2C42.28 54.49 48.37 50.93 59.33 44.53C74.77 54.93 83.35 60.71 85.07 61.87C109.87 78.67 110.67 79.33 110.67 83.73C110.67 84.34 110.67 85.85 110.67 88.27ZM179.2 72C177.04 76.48 175.84 78.97 175.6 79.47C173.6 83.47 171.47 86.4 170.8 86C170 85.6 166.53 81.07 162.8 76C162.35 75.38 160.08 72.27 156 66.67C159.84 64.75 161.97 63.68 162.4 63.47C165.87 61.6 169.2 60.27 169.87 60.4C170.53 60.67 172.8 63.33 175.07 66.4C175.62 67.15 177 69.01 179.2 72ZM54.4 98.67C55.36 104.43 55.89 107.63 56 108.27C56.8 113.6 58.27 122.8 59.33 128.67C59.45 129.37 60.03 132.88 61.07 139.2C53.07 149.04 48.62 154.51 47.73 155.6C40.4 164.67 34 171.87 33.6 171.47C33.07 170.93 21.47 77.07 21.33 72.13C21.33 70.53 21.73 70.53 23.73 72.27C24.93 73.33 32.4 79.73 40.27 86.4C42.15 88.04 46.86 92.12 54.4 98.67ZM189.07 171.33C188.8 171.6 182.13 164.67 174.27 156C164.67 145.33 160 139.07 160 137.07C160.13 135.33 161.73 126.13 163.73 116.4C163.97 115.23 165.17 109.36 167.33 98.8C177.73 90.32 183.51 85.61 184.67 84.67C194.13 76.8 202.13 70.93 202.27 71.6C202.53 72.13 199.73 94.8 196.13 121.73C192.53 148.8 189.33 171.07 189.07 171.33ZM88 83.07C88.8 86.13 90.27 91.6 91.33 95.33C92.4 98.93 93.07 102 92.93 102.27C92.53 102.67 59.47 97.33 58.93 96.67C58.53 96.27 70.67 78.53 74.4 74.27C76.93 71.47 76.8 71.47 82.13 74.8C85.47 76.8 87.07 79.07 88 83.07ZM163.73 96.67C163.2 97.2 131.47 102.4 131.07 102.13C130.8 102 132.27 96.27 134.27 89.47C137.33 78.8 138.4 76.67 141.87 74.53C144.13 73.2 146.27 72 146.67 72C147.07 72 151.2 77.47 155.87 84.13C160.4 90.8 164 96.4 163.73 96.67ZM130.67 92.27C130.67 92.93 126.8 93.33 122 93.33C117.2 93.33 113.33 92.8 113.33 92.13C113.33 91.2 132.13 79.2 134.27 78.67C134.4 78.67 133.73 81.47 132.67 84.93C131.6 88.53 130.67 91.73 130.67 92.27ZM101.2 93.33C100.68 93.33 98.11 93.33 93.47 93.33C92.67 90.29 92.22 88.6 92.13 88.27C89.73 79.73 90.13 79.47 98.4 84C102.53 86.4 107.07 89.07 108.27 90C111.87 92.4 109.73 93.33 101.2 93.33ZM109.33 162.67C108.53 162.67 104.93 161.2 101.07 159.33C97.33 157.47 94 156.13 93.87 156.4C92.67 157.6 96.67 166.67 98.4 166.67C99.47 166.67 100 165.87 99.47 164.67C98.53 162.27 98.53 162.27 104.4 164.67C109.2 166.67 111.6 168.93 110.27 170.27C109.87 170.67 106.4 171.33 102.53 171.87C98.67 172.27 95.33 173.33 95.07 174.27C94.67 175.2 95.47 175.6 96.93 175.33C98.27 175.07 101.87 174.53 105.07 174.27C105.44 174.22 107.31 174 110.67 173.6C110.67 176.4 110.67 177.96 110.67 178.27C110.67 182.67 110.4 182.93 107.07 182.27C96.67 180.13 93.6 177.6 87.07 166.27C83.47 159.87 77.73 152.4 73.47 148.4C72.97 147.93 70.48 145.57 66 141.33L83.87 141.33L101.73 141.33C101.17 137.09 100.86 134.74 100.8 134.27C100.27 130.53 99.47 126.93 98.93 126.4C98.4 126 92.13 122.4 84.93 118.67C75.87 113.87 71.47 110.67 70.53 108.4C68 101.73 68.4 101.6 82.93 104.27C90.4 105.6 96.67 106.4 96.93 106.13C97.2 105.87 96.8 104.13 96 102.13C93.87 96.4 94.27 96 102.67 96C103.2 96 105.87 96 110.67 96L110.67 129.33C110.31 151.56 109.87 162.67 109.33 162.67ZM122.67 138.8C122.67 141.2 123.73 141.33 138 141.33C146.4 141.33 153.33 141.87 153.33 142.4C153.33 142.93 151.2 145.6 148.53 148.13C146 150.53 140.8 158 137.07 164.53C130.8 175.47 129.73 176.53 123.07 179.47C119.2 181.2 115.33 182.67 114.67 182.67C113.87 182.67 113.33 180.53 113.33 177.87C113.33 174 113.73 173.33 115.73 173.87C120.27 175.2 128 175.2 128 174C128.13 173.2 126.67 172.53 125.07 172.27C116 171.2 113.33 170.4 113.33 168.67C113.33 167.6 113.6 166.67 113.87 166.67C114.13 166.67 116.53 165.73 119.33 164.53C123.87 162.67 124.27 162.67 123.6 164.53C123.07 165.87 123.47 166.67 124.4 166.67C126 166.67 131.33 157.6 130.4 156.67C130.13 156.4 126.27 158 121.73 160C121.17 160.26 118.37 161.55 113.33 163.87L113.33 129.87L113.33 96C118.21 96 120.92 96 121.47 96C128.53 96 129.47 96.27 128.8 98.27C127.73 100.8 122.67 134.8 122.67 138.8ZM63.07 113.87C60 114.8 59.6 114.13 58 104.93C57.2 100 57.33 99.87 60.8 100.27C63.6 100.53 64.8 101.73 66.27 105.87C68.13 111.47 67.73 112.53 63.07 113.87ZM158.53 113.2C155.87 111.87 155.87 110.93 158.8 102.93C159.47 101.33 160.93 100 162.13 100C163.87 100 164.13 100.93 163.47 104.93C161.73 114.27 161.47 114.8 158.53 113.2ZM140.53 117.87C134.13 121.33 128.67 123.73 128.27 123.47C127.73 122.8 130.13 106.67 130.93 106C131.2 105.73 136.4 104.8 142.67 103.73C154.93 101.73 155.87 102.13 153.47 108.27C152.53 110.67 148.67 113.6 140.53 117.87ZM97.47 133.07C98.13 136 97.87 137.73 96.8 138.13C95.87 138.53 88 138.53 79.33 138.4C78.28 138.37 72.99 138.24 63.47 138C62.51 132 61.97 128.67 61.87 128C60.93 122.53 60.27 118 60.4 118C60.53 117.87 62.13 117.2 64 116.4C69.2 114 70.53 114.27 84 121.73C95.07 127.87 96.67 129.2 97.47 133.07ZM160.8 117.6L158.8 128.13L156.8 138.67L141.07 138.67L125.47 138.67C125.95 136.03 126.21 134.56 126.27 134.27C127.33 128.67 127.2 128.67 140.93 121.2C154.13 114 153.47 114.13 157.73 116.13C158.14 116.33 159.16 116.82 160.8 117.6ZM77.73 155.47C66.29 160.43 59.94 163.18 58.67 163.73C48.13 168.27 39.33 171.73 39.07 171.47C38.4 170.93 61.33 142.67 62.53 142.67C62.93 142.67 66.53 145.6 70.53 149.07C71.49 149.92 73.89 152.05 77.73 155.47ZM183.47 170.67C182.27 170.67 147.87 156.27 147.07 155.47C146.27 154.8 156.13 142.8 157.47 142.67C158 142.67 164.13 148.93 171.33 156.67C178.4 164.4 183.87 170.67 183.47 170.67ZM170 187.07C168.84 187.84 163.07 191.71 152.67 198.67L142.4 188.4L132.13 178.13C133.57 175.73 134.37 174.4 134.53 174.13C135.87 171.87 138.53 167.2 140.53 163.87C140.77 163.45 141.97 161.36 144.13 157.6C155.49 162.32 161.8 164.94 163.07 165.47C173.47 169.87 183.2 173.87 184.67 174.53C186.8 175.33 184.53 177.33 170 187.07ZM89.2 180.53C88.13 181.47 83.33 185.87 78.53 190.53C77.95 191.08 75.01 193.84 69.73 198.8C60.21 192.72 54.92 189.34 53.87 188.67C45.07 183.07 37.47 178 36.93 177.47C36 176.53 74.8 158.8 78.13 158.67C78.93 158.67 82.13 163.2 85.33 168.8C90.13 177.33 90.8 179.07 89.2 180.53ZM114.53 216.67C114 218.27 113.47 212.8 113.47 202.93C113.46 201.85 113.41 196.43 113.33 186.67C117.57 184.75 119.93 183.68 120.4 183.47C124.13 181.73 127.47 180.53 127.73 180.67C127.87 180.8 125.33 188.4 121.87 197.47C118.53 206.53 115.2 215.2 114.53 216.67ZM107.73 222.13C107.2 222.53 76.4 203.33 74 201.2C73.2 200.4 76 196.67 82 190.67C87.2 185.6 91.6 181.47 92 181.33C92.4 181.33 96.13 190.4 100.4 201.47C104.67 212.53 107.87 221.87 107.73 222.13ZM110.13 218.53C109.47 217.87 96 183.07 96 182.13C96 181.73 99.2 182.53 103.07 183.87C103.53 184.03 105.84 184.83 110 186.27L110.4 202.67C110.49 213.51 110.4 218.8 110.13 218.53ZM148.53 201.2C145.6 203.87 116.8 222.53 116.27 222C116 221.73 118 215.6 120.67 208.4C123.33 201.2 126.8 192.13 128.27 188.27C129.73 184.4 131.33 181.33 131.73 181.6C132.27 181.87 136.53 186 141.2 191.07C146.27 196.4 149.33 200.53 148.53 201.2Z" id="e4OBRAa9m"></path></defs><g><g><use xlink:href="#e4OBRAa9m" opacity="1" fill="#64ffda" fill-opacity="1"></use><g><use xlink:href="#e4OBRAa9m" opacity="1" fill-opacity="0" stroke="#000000" stroke-width="1" stroke-opacity="0"></use></g></g></g></svg>