<svg id="svg" version="1.1" width="288" height="252" viewBox="0 0 288 252" xmlns="http://www.w3.org/2000/svg">
    <path d="M77.500 127.222 C 45.050 183.435,18.356 230.231,18.180 231.214 C 17.880 232.893,19.634 233.009,47.430 233.150 C 63.694 233.233,77.505 233.345,78.123 233.400 C 78.741 233.455,84.479 224.403,90.873 213.284 L 102.500 193.068 121.750 193.034 C 132.338 193.015,141.000 192.753,141.000 192.450 C 141.000 192.148,136.706 184.667,131.457 175.825 L 121.915 159.749 130.175 145.375 C 134.718 137.469,138.674 131.009,138.967 131.020 C 139.260 131.031,152.717 153.981,168.872 182.020 L 198.244 233.000 228.205 233.000 C 244.684 233.000,258.017 232.662,257.833 232.250 C 257.650 231.837,255.378 227.900,252.785 223.500 C 250.192 219.100,223.405 172.784,193.259 120.575 C 163.113 68.366,138.010 25.507,137.474 25.333 C 136.938 25.159,109.950 71.009,77.500 127.222 M196.377 129.765 C 227.560 183.811,253.331 228.699,253.644 229.515 C 254.140 230.806,250.628 231.000,226.764 231.000 L 199.315 231.000 170.019 180.250 C 153.907 152.338,140.227 129.181,139.620 128.792 C 138.105 127.819,138.225 127.651,128.502 144.437 C 121.419 156.665,120.021 159.749,120.797 161.437 C 121.318 162.572,125.607 169.903,130.328 177.729 L 138.912 191.957 119.839 192.229 L 100.767 192.500 89.652 211.750 L 78.537 231.000 49.209 231.000 C 33.079 231.000,20.077 230.662,20.315 230.250 C 20.553 229.838,46.054 185.625,76.984 132.000 C 145.078 13.941,136.950 27.469,138.456 29.694 C 139.129 30.687,165.193 75.719,196.377 129.765" stroke="#64ffda" stroke-width="3" fill="#64ffda"/>
</svg>